<?xml version="1.0" encoding="UTF-8" standalone="no"?>
<!DOCTYPE svg PUBLIC "-//W3C//DTD SVG 1.1//EN" "http://www.w3.org/Graphics/SVG/1.1/DTD/svg11.dtd">
<!-- Generated by graphviz version 2.40.1 (20161225.0304)
 -->
<!-- Title: G Pages: 1 -->
<svg width="269pt" height="260pt" viewBox="0.00 0.00 268.64 260.00" xmlns="http://www.w3.org/2000/svg" xmlns:xlink="http://www.w3.org/1999/xlink">
<g id="graph0" class="graph" transform="scale(1 1) rotate(0) translate(4 256)">
<title>G</title>
<polygon fill="#ffffff" stroke="transparent" points="-4,4 -4,-256 264.6358,-256 264.6358,4 -4,4"/>
<!-- frontend -->
<g id="node1" class="node">
<title>frontend</title>
<ellipse fill="none" stroke="#000000" cx="130.3179" cy="-234" rx="43.5022" ry="18"/>
<text text-anchor="middle" x="130.3179" y="-229.8" font-family="Times,serif" font-size="14.00" fill="#000000">frontend</text>
</g>
<!-- auth (nginx) -->
<g id="node2" class="node">
<title>auth (nginx)</title>
<ellipse fill="none" stroke="#000000" cx="130.3179" cy="-162" rx="58.5104" ry="18"/>
<text text-anchor="middle" x="130.3179" y="-157.8" font-family="Times,serif" font-size="14.00" fill="#000000">auth (nginx)</text>
</g>
<!-- frontend&#45;&gt;auth (nginx) -->
<g id="edge1" class="edge">
<title>frontend-&gt;auth (nginx)</title>
<path fill="none" stroke="#000000" d="M130.3179,-215.8314C130.3179,-208.131 130.3179,-198.9743 130.3179,-190.4166"/>
<polygon fill="#000000" stroke="#000000" points="133.818,-190.4132 130.3179,-180.4133 126.818,-190.4133 133.818,-190.4132"/>
</g>
<!-- server -->
<g id="node3" class="node">
<title>server</title>
<ellipse fill="none" stroke="#000000" cx="130.3179" cy="-90" rx="34.7476" ry="18"/>
<text text-anchor="middle" x="130.3179" y="-85.8" font-family="Times,serif" font-size="14.00" fill="#000000">server</text>
</g>
<!-- auth (nginx)&#45;&gt;server -->
<g id="edge2" class="edge">
<title>auth (nginx)-&gt;server</title>
<path fill="none" stroke="#000000" d="M130.3179,-143.8314C130.3179,-136.131 130.3179,-126.9743 130.3179,-118.4166"/>
<polygon fill="#000000" stroke="#000000" points="133.818,-118.4132 130.3179,-108.4133 126.818,-118.4133 133.818,-118.4132"/>
</g>
<!-- client1 -->
<g id="node4" class="node">
<title>client1</title>
<ellipse fill="none" stroke="#000000" cx="37.3179" cy="-18" rx="37.1367" ry="18"/>
<text text-anchor="middle" x="37.3179" y="-13.8" font-family="Times,serif" font-size="14.00" fill="#000000">client1</text>
</g>
<!-- server&#45;&gt;client1 -->
<g id="edge3" class="edge">
<title>server-&gt;client1</title>
<path fill="none" stroke="#000000" d="M110.595,-74.7307C97.491,-64.5856 80.0833,-51.1087 65.5229,-39.8361"/>
<polygon fill="#000000" stroke="#000000" points="67.3829,-36.8498 57.333,-33.4956 63.0976,-42.3849 67.3829,-36.8498"/>
</g>
<!-- client2 -->
<g id="node5" class="node">
<title>client2</title>
<ellipse fill="none" stroke="#000000" cx="130.3179" cy="-18" rx="37.1367" ry="18"/>
<text text-anchor="middle" x="130.3179" y="-13.8" font-family="Times,serif" font-size="14.00" fill="#000000">client2</text>
</g>
<!-- server&#45;&gt;client2 -->
<g id="edge4" class="edge">
<title>server-&gt;client2</title>
<path fill="none" stroke="#000000" d="M130.3179,-71.8314C130.3179,-64.131 130.3179,-54.9743 130.3179,-46.4166"/>
<polygon fill="#000000" stroke="#000000" points="133.818,-46.4132 130.3179,-36.4133 126.818,-46.4133 133.818,-46.4132"/>
</g>
<!-- client3 -->
<g id="node6" class="node">
<title>client3</title>
<ellipse fill="none" stroke="#000000" cx="223.3179" cy="-18" rx="37.1367" ry="18"/>
<text text-anchor="middle" x="223.3179" y="-13.8" font-family="Times,serif" font-size="14.00" fill="#000000">client3</text>
</g>
<!-- server&#45;&gt;client3 -->
<g id="edge5" class="edge">
<title>server-&gt;client3</title>
<path fill="none" stroke="#000000" d="M150.0408,-74.7307C163.1448,-64.5856 180.5524,-51.1087 195.1129,-39.8361"/>
<polygon fill="#000000" stroke="#000000" points="197.5382,-42.3849 203.3028,-33.4956 193.2529,-36.8498 197.5382,-42.3849"/>
</g>
</g>
</svg>